<svg id="Component_29_1" data-name="Component 29 – 1" xmlns="http://www.w3.org/2000/svg" width="20.974" height="20.984" viewBox="0 0 20.974 20.984">
  <path id="Path_13" data-name="Path 13" d="M226.735,670.5a2.393,2.393,0,0,1,.552-1.528,13.528,13.528,0,0,1,1.376-1.5,2.535,2.535,0,0,1,3.925,1.344c.262.848.5,1.705.7,2.571a2.255,2.255,0,0,1-.746,2.371,1.357,1.357,0,0,0-.387,1.878,10,10,0,0,0,5.983,5.646.774.774,0,0,0,1-.233,2.428,2.428,0,0,1,2.289-1.122,13.776,13.776,0,0,1,3.452.965,2.443,2.443,0,0,1,.571,4.071,2.315,2.315,0,0,0-.406.408,3.072,3.072,0,0,1-3.065,1.122A16.469,16.469,0,0,1,227.2,674.013c-.189-.755-.3-1.529-.448-2.295a1.091,1.091,0,0,1-.019-.2Zm10.487-4.966v1.236c5.621.613,8.656,3.689,9.252,9.226a.332.332,0,0,0,.083.018c.384,0,.769.005,1.153.007V674.87a1.772,1.772,0,0,1-.1-.287,10.325,10.325,0,0,0-7.415-8.616c-.589-.2-1.211-.289-1.818-.43Zm5.284,10.447h1.253a6.448,6.448,0,0,0-6.515-6.465v1.22C240.429,671.1,242.163,672.86,242.507,675.983Zm-3.954,0h1.268a2.513,2.513,0,0,0-2.571-2.548v1.278A1.375,1.375,0,0,1,238.552,675.987Z" transform="translate(-226.735 -665.536)" fill="#fff"/>
</svg>
