<svg xmlns="http://www.w3.org/2000/svg" width="22.178" height="22.184" viewBox="0 0 22.178 22.184">
  <path id="icone_whats" d="M-427.532-117.23a10.442,10.442,0,0,1-1.441-5.3A10.479,10.479,0,0,1-418.506-133a10.479,10.479,0,0,1,10.467,10.467,10.479,10.479,0,0,1-10.467,10.467,10.442,10.442,0,0,1-5.116-1.335L-429-112.017Zm4.5,2.121a8.674,8.674,0,0,0,4.522,1.267,8.7,8.7,0,0,0,8.691-8.691,8.7,8.7,0,0,0-8.691-8.691,8.7,8.7,0,0,0-8.691,8.691,8.658,8.658,0,0,0,1.372,4.69l.216.336-.846,3,3.107-.8Zm6.338-2.552a11.016,11.016,0,0,1-5.941-4.318,4.724,4.724,0,0,1-1.1-3.7,3.1,3.1,0,0,1,1.018-1.559.82.82,0,0,1,.584-.2l.679.037a.35.35,0,0,1,.3.213l.99,2.315a.352.352,0,0,1-.058.368l-.861,1a.261.261,0,0,0-.032.291,7.057,7.057,0,0,0,3.818,3.268.258.258,0,0,0,.29-.086l.9-1.168a.351.351,0,0,1,.426-.1l2.3,1.058a.352.352,0,0,1,.2.393l-.108.507a2.194,2.194,0,0,1-.954,1.392,2.751,2.751,0,0,1-1.506.441A3.466,3.466,0,0,1-416.69-117.661Z" transform="translate(429.717 133.5)" fill="#fff" stroke="rgba(0,0,0,0)" stroke-miterlimit="10" stroke-width="1"/>
</svg>
