<svg id="icone_whats_circle" xmlns="http://www.w3.org/2000/svg" width="40.272" height="40.316" viewBox="0 0 40.272 40.316">
  <path id="Path_9" data-name="Path 9" d="M68.494,108.637l2.82-10.017a20.1,20.1,0,1,1,7.51,7.358Zm10.859-6.318.616.376a16.695,16.695,0,1,0-5.374-5.254l.415.646-1.624,5.769Z" transform="translate(-68.494 -68.321)" fill="#fff"/>
  <path id="Path_10" data-name="Path 10" d="M152.116,152.9l-1.3-.071a1.578,1.578,0,0,0-1.122.384,5.945,5.945,0,0,0-1.955,3c-.463,2.064.253,4.591,2.106,7.117a21.174,21.174,0,0,0,11.413,8.3,5.562,5.562,0,0,0,4.71-.583,4.213,4.213,0,0,0,1.833-2.674l.208-.973a.676.676,0,0,0-.378-.756l-4.41-2.033a.676.676,0,0,0-.818.2l-1.731,2.244a.5.5,0,0,1-.557.166,13.558,13.558,0,0,1-7.336-6.278.5.5,0,0,1,.063-.558l1.655-1.914a.676.676,0,0,0,.11-.708l-1.9-4.448A.676.676,0,0,0,152.116,152.9Z" transform="translate(-137.604 -142.148)" fill="#fff"/>
</svg>
