<svg id="icone_facebook_circle" xmlns="http://www.w3.org/2000/svg" width="43" height="43" viewBox="0 0 43 43">
  <g id="Rectangle_6" data-name="Rectangle 6" fill="none" stroke="#fff" stroke-width="3">
    <rect width="43" height="43" rx="21.5" stroke="none"/>
    <rect x="1.5" y="1.5" width="40" height="40" rx="20" fill="none"/>
  </g>
  <path id="facebook" d="M11.449,23.624a.3.3,0,0,0,.3.3h4.3a.3.3,0,0,0,.3-.3V11.868h3.114a.3.3,0,0,0,.3-.277l.3-3.541a.3.3,0,0,0-.3-.327H16.347V5.211a1.066,1.066,0,0,1,1.066-1.067h2.4a.3.3,0,0,0,.3-.3V.3a.3.3,0,0,0-.3-.3H15.759A4.309,4.309,0,0,0,11.45,4.309V7.724H9.3a.3.3,0,0,0-.3.3v3.542a.3.3,0,0,0,.3.3h2.148Z" transform="translate(7.449 9.355)" fill="#fff" fill-rule="evenodd"/>
</svg>
