<?xml version="1.0" encoding="utf-8"?>
<!-- Generator: Adobe Illustrator 25.0.0, SVG Export Plug-In . SVG Version: 6.00 Build 0)  -->
<svg version="1.1" id="Layer_1" xmlns="http://www.w3.org/2000/svg" xmlns:xlink="http://www.w3.org/1999/xlink" x="0px" y="0px"
	 viewBox="0 0 595.28 595.28" style="enable-background:new 0 0 595.28 595.28;" xml:space="preserve">
<style type="text/css">
	.st0{fill-rule:evenodd;clip-rule:evenodd;fill:#606161;}
	.st1{fill:#83C441;}
	.st2{fill:#FFFFFF;}
</style>
<g>
	<circle class="st0" cx="297.64" cy="297.64" r="297.64"/>
	<g>
		<path class="st1" d="M273.95,487.3c-59.43-76.85-99.57-164.35-119.31-260.09c-3.64-17.67-6.58-35.68-8.71-53.54l-0.72-6
			l-30.33,9.61l0.52,4.13c2.19,17.38,5.1,34.91,8.64,52.11c20.02,97.05,60.07,186.17,119.04,264.89l1.93,2.58l33.76-7.44
			L273.95,487.3z"/>
		<path class="st2" d="M448.48,144.46L338.43,405.82c-3.14,7.46-11.52,28.25-17.88,44.06c-51.59-72.18-86.88-153.14-104.96-240.79
			c-3.72-18.06-6.7-36.46-8.84-54.69l-0.71-6.01l-30.35,9.61l0.51,4.13c2.21,17.78,5.17,35.7,8.79,53.27
			c20.42,99.03,61.65,189.71,122.54,269.52l1.91,2.5l25.79-5.32h2.8l144.45-337.64H448.48z"/>
	</g>
</g>
</svg>
