<svg id="icone_instagram_circle" xmlns="http://www.w3.org/2000/svg" width="44" height="43" viewBox="0 0 44 43">
  <g id="Rectangle_31" data-name="Rectangle 31" fill="none" stroke="#fff" stroke-width="3">
    <rect width="44" height="43" rx="21.5" stroke="none"/>
    <rect x="1.5" y="1.5" width="41" height="40" rx="20" fill="none"/>
  </g>
  <path id="instagram" d="M21.668,16.719a4.95,4.95,0,0,1-4.95,4.95H7.207a4.95,4.95,0,0,1-4.95-4.95V7.206a4.95,4.95,0,0,1,4.95-4.95h9.512a4.95,4.95,0,0,1,4.95,4.95Zm2.257-9.513A7.207,7.207,0,0,0,16.718,0H7.207A7.206,7.206,0,0,0,0,7.206v9.513a7.207,7.207,0,0,0,7.207,7.207h9.51a7.207,7.207,0,0,0,7.207-7.207ZM12,15.9a3.785,3.785,0,1,1,3.785-3.785A3.789,3.789,0,0,1,12,15.9Zm0-9.693a5.908,5.908,0,1,0,5.909,5.908A5.915,5.915,0,0,0,12,6.209Zm6.253-1.8a1.407,1.407,0,1,0,1.407,1.407A1.407,1.407,0,0,0,18.256,4.4Z" transform="translate(10.037 9.355)" fill="#fff"/>
</svg>
