<svg id="icone_tweeter_circle" xmlns="http://www.w3.org/2000/svg" width="43" height="43" viewBox="0 0 43 43">
  <g id="Rectangle_32" data-name="Rectangle 32" fill="none" stroke="#fff" stroke-width="3">
    <rect width="43" height="43" rx="21.5" stroke="none"/>
    <rect x="1.5" y="1.5" width="40" height="40" rx="20" fill="none"/>
  </g>
  <path id="twitter" d="M23.836,5.362a9.848,9.848,0,0,1-2.416.69c.389-.066.963-.77,1.193-1.056a4.446,4.446,0,0,0,.8-1.465c.021-.042.037-.094,0-.126a.14.14,0,0,0-.129.011,12.349,12.349,0,0,1-2.87,1.1.193.193,0,0,1-.2-.052,2.32,2.32,0,0,0-.25-.257,5.08,5.08,0,0,0-1.391-.852A4.843,4.843,0,0,0,16.44,3.01a5.1,5.1,0,0,0-2.024.572,5.22,5.22,0,0,0-1.631,1.332,5.012,5.012,0,0,0-.975,1.953,5.314,5.314,0,0,0-.052,2.061c.016.115.006.131-.1.115A15.329,15.329,0,0,1,1.794,4.024c-.115-.132-.178-.132-.272.01a5,5,0,0,0,.852,5.91c.194.183.392.366.606.533a5.022,5.022,0,0,1-1.9-.533c-.115-.073-.173-.031-.183.1a2.983,2.983,0,0,0,.031.565,5.059,5.059,0,0,0,3.118,4.033,2.946,2.946,0,0,0,.633.193,5.638,5.638,0,0,1-1.867.058c-.136-.027-.188.041-.136.172A5.248,5.248,0,0,0,6.6,18.349c.178.031.356.031.534.073-.01.016-.021.016-.031.031-.441.671-1.968,1.172-2.679,1.421a9.6,9.6,0,0,1-4.069.52c-.218-.032-.265-.03-.324,0s-.007.09.063.146c.277.183.559.345.847.5a13.421,13.421,0,0,0,2.72,1.088A14.487,14.487,0,0,0,17.72,18.843C20.6,15.979,21.61,12.031,21.61,8.076c0-.154.182-.239.292-.321a9.455,9.455,0,0,0,1.905-1.99.579.579,0,0,0,.118-.381V5.362C23.925,5.3,23.933,5.318,23.836,5.362Z" transform="translate(9.355 8.599)" fill="#fff" fill-rule="evenodd"/>
</svg>
