<svg xmlns="http://www.w3.org/2000/svg" width="160" height="32.174" viewBox="0 0 160 32.174">
  <g id="logo_envida_cinza" transform="translate(-230 -24)">
    <path id="Path_7" data-name="Path 7" d="M85.386,21.146A37.493,37.493,0,0,1,78.308,5.719c-.218-1.062-.388-2.116-.517-3.178l-1.211.381c.129,1.014.293,2.028.5,3.042a38.775,38.775,0,0,0,6.955,15.475ZM184.46,32.1h-2.634V27.414h2.525v.66H182.6V29.4h1.613v.66H182.6v1.388h1.851V32.1Zm-8.908-4.029v3.368h.619a1.756,1.756,0,0,0,1.279-.449,1.7,1.7,0,0,0,.456-1.273,1.48,1.48,0,0,0-1.7-1.647Zm-.776,4.029V27.414h1.354q2.593,0,2.593,2.286A2.235,2.235,0,0,1,178,31.442a2.767,2.767,0,0,1-1.926.66Zm-4.171-6.24-.932,1.075h-.565l.789-1.075Zm.823,4.342c0,1.313-.626,1.973-1.871,1.973-1.2,0-1.79-.633-1.79-1.9V27.414h.776v2.708c0,.919.354,1.381,1.075,1.381.687,0,1.034-.442,1.034-1.334V27.414h.776Zm-7.976.068L162.8,28.4a1.886,1.886,0,0,1-.061-.293h-.014a1.564,1.564,0,0,1-.068.293l-.646,1.871ZM164.93,32.1h-.851l-.422-1.191h-1.844L161.4,32.1h-.851l1.756-4.689h.878Zm-9.963-.191v-.8a1.233,1.233,0,0,0,.259.177,2.559,2.559,0,0,0,.313.136,2.974,2.974,0,0,0,.333.082,1.648,1.648,0,0,0,.306.027,1.3,1.3,0,0,0,.728-.163.544.544,0,0,0,.238-.476.5.5,0,0,0-.082-.286.879.879,0,0,0-.225-.225,2.245,2.245,0,0,0-.34-.2l-.415-.2c-.157-.082-.306-.17-.442-.259a2.225,2.225,0,0,1-.361-.286,1.148,1.148,0,0,1-.238-.361,1.112,1.112,0,0,1-.088-.47,1.038,1.038,0,0,1,.15-.572,1.172,1.172,0,0,1,.395-.4,1.973,1.973,0,0,1,.558-.238,3.154,3.154,0,0,1,1.708.1v.769a1.716,1.716,0,0,0-1.028-.286,1.5,1.5,0,0,0-.347.034,1.018,1.018,0,0,0-.306.109.658.658,0,0,0-.218.191.559.559,0,0,0-.014.558.777.777,0,0,0,.191.211,2.018,2.018,0,0,0,.306.184c.122.061.259.122.422.2s.32.177.463.265a2.175,2.175,0,0,1,.381.313,1.3,1.3,0,0,1,.259.381,1.035,1.035,0,0,1,.1.47,1.165,1.165,0,0,1-.143.6,1.153,1.153,0,0,1-.388.4,1.753,1.753,0,0,1-.565.225,3.037,3.037,0,0,1-.667.068,2.541,2.541,0,0,1-.293-.02,3.444,3.444,0,0,1-.354-.054,2.489,2.489,0,0,1-.34-.082A1.456,1.456,0,0,1,154.967,31.912Zm-4.7.191h-2.634V27.414h2.525v.66h-1.749V29.4h1.613v.66h-1.613v1.388h1.851V32.1Zm-8.908-4.029v3.368h.619a1.756,1.756,0,0,0,1.279-.449,1.7,1.7,0,0,0,.456-1.273,1.48,1.48,0,0,0-1.7-1.647Zm-.776,4.029V27.414h1.354q2.593,0,2.593,2.286a2.235,2.235,0,0,1-.721,1.742,2.767,2.767,0,0,1-1.926.66Zm-7.948-.191v-.8a1.234,1.234,0,0,0,.259.177,2.559,2.559,0,0,0,.313.136,2.974,2.974,0,0,0,.333.082,1.648,1.648,0,0,0,.306.027,1.3,1.3,0,0,0,.728-.163.544.544,0,0,0,.238-.476.5.5,0,0,0-.082-.286.879.879,0,0,0-.225-.225,2.245,2.245,0,0,0-.34-.2l-.415-.2c-.157-.082-.306-.17-.442-.259a2.224,2.224,0,0,1-.361-.286,1.148,1.148,0,0,1-.238-.361,1.112,1.112,0,0,1-.088-.47,1.038,1.038,0,0,1,.15-.572,1.172,1.172,0,0,1,.395-.4,1.973,1.973,0,0,1,.558-.238,3.154,3.154,0,0,1,1.708.1v.769a1.716,1.716,0,0,0-1.028-.286,1.5,1.5,0,0,0-.347.034,1.018,1.018,0,0,0-.306.109.658.658,0,0,0-.218.191.558.558,0,0,0-.014.558.776.776,0,0,0,.191.211,2.016,2.016,0,0,0,.306.184c.122.061.259.122.422.2s.32.177.463.265a2.175,2.175,0,0,1,.381.313,1.3,1.3,0,0,1,.259.381,1.035,1.035,0,0,1,.1.47,1.164,1.164,0,0,1-.143.6,1.153,1.153,0,0,1-.388.4,1.753,1.753,0,0,1-.565.225,3.037,3.037,0,0,1-.667.068,2.541,2.541,0,0,1-.293-.02,3.443,3.443,0,0,1-.354-.054,2.489,2.489,0,0,1-.34-.082A1.1,1.1,0,0,1,132.633,31.912Zm-5.124-3.892a1.294,1.294,0,0,0-1.048.483,2.2,2.2,0,0,0-.007,2.525,1.259,1.259,0,0,0,1.028.476,1.313,1.313,0,0,0,1.062-.456,1.909,1.909,0,0,0,.388-1.273,2,2,0,0,0-.381-1.3A1.272,1.272,0,0,0,127.509,28.02Zm-.041,4.158a2.108,2.108,0,0,1-1.626-.66,2.4,2.4,0,0,1-.612-1.708,2.578,2.578,0,0,1,.619-1.8,2.189,2.189,0,0,1,1.688-.674,2.063,2.063,0,0,1,1.592.653,2.426,2.426,0,0,1,.606,1.708,2.57,2.57,0,0,1-.619,1.817A2.115,2.115,0,0,1,127.468,32.177Zm-5.342-.075h-.851l-2.239-3.45a2.075,2.075,0,0,1-.143-.272h-.02a4.309,4.309,0,0,1,.027.646V32.1h-.749V27.414h.905l2.164,3.362c.088.136.15.238.177.286h.014a4.294,4.294,0,0,1-.034-.633V27.407h.749Zm-8.343-1.831L113.13,28.4a1.879,1.879,0,0,1-.061-.293h-.014a2.627,2.627,0,0,1-.061.293l-.646,1.871ZM115.26,32.1h-.851l-.422-1.191h-1.844l-.408,1.191h-.851l1.756-4.689h.878Zm-6.948,0h-2.6V27.414h.776v4.029h1.817v.66Zm-7.982-4.049v1.715h.5a1.11,1.11,0,0,0,.762-.231.822.822,0,0,0,.259-.653c0-.551-.32-.83-.96-.83Zm0,2.348v1.7h-.776V27.414h1.422a1.884,1.884,0,0,1,1.252.374,1.306,1.306,0,0,1,.442,1.062,1.463,1.463,0,0,1-.463,1.116,1.749,1.749,0,0,1-1.259.436ZM175.661.3a37.492,37.492,0,0,1,7.077,15.427c.218,1.062.388,2.116.517,3.178l1.211-.381c-.129-1.014-.293-2.028-.5-3.042A38.775,38.775,0,0,0,177.009.01Z" transform="translate(205.533 23.99)" fill="#83c441" fill-rule="evenodd"/>
    <path id="Path_8" data-name="Path 8" d="M110.33,19.305h4.886a8.4,8.4,0,0,0,0-16.795H110.33Zm4.893-18.013a9.622,9.622,0,0,1,0,19.245h-6.179V1.292h6.179ZM89.01,20.53V1.455h1.279V20.523H89.01Zm-23.79-3.872,6.4-15.2h1.361L64.73,20.741h0l-1.368.279A38.864,38.864,0,0,1,56.2,5.28c-.218-1.041-.388-2.076-.51-3.11L56.9,1.789c.129,1.075.3,2.157.524,3.246a37.558,37.558,0,0,0,6.54,14.712C64.246,19.046,64.981,17.216,65.219,16.658ZM0,20.53V1.455H8.853V2.578H1.279V9.594H8.132v1.1H1.279v8.724H9.146v1.123H0Zm38.843-16.9c-1.225-1.449-3.1-2.171-5.6-2.171s-4.376.721-5.614,2.184a8.93,8.93,0,0,0-1.851,5.975V20.85h1.279V9.621q0-7.043,6.172-7.043T39.4,9.621V20.85h1.279V9.621A8.988,8.988,0,0,0,38.843,3.633ZM70.167,32.48H67.533V27.791h2.525v.66H68.309v1.327h1.613v.66H68.309v1.388H70.16v.653Zm-8.908-4.029v3.368h.619a1.756,1.756,0,0,0,1.279-.449,1.7,1.7,0,0,0,.456-1.273,1.48,1.48,0,0,0-1.7-1.647Zm-.776,4.029V27.791h1.354q2.593,0,2.593,2.286a2.235,2.235,0,0,1-.721,1.742,2.767,2.767,0,0,1-1.926.66ZM54.27,30.649l-.653-1.871a1.88,1.88,0,0,1-.061-.293h-.014a1.564,1.564,0,0,1-.068.293l-.646,1.871Zm1.477,1.831H54.9l-.422-1.191H52.63l-.408,1.191h-.851l1.756-4.689H54Zm-9.493-4.063v1.524H46.9a1.038,1.038,0,0,0,.333-.054.757.757,0,0,0,.265-.163.717.717,0,0,0,.17-.252.892.892,0,0,0,.061-.34.653.653,0,0,0-.211-.524.881.881,0,0,0-.612-.191Zm2.851,4.063h-.912l-.749-1.259a2.178,2.178,0,0,0-.2-.293,1.131,1.131,0,0,0-.2-.2.672.672,0,0,0-.218-.116,1.006,1.006,0,0,0-.265-.034h-.313V32.48h-.776V27.791h1.545a2.42,2.42,0,0,1,.606.075,1.4,1.4,0,0,1,.483.238,1.066,1.066,0,0,1,.32.395,1.275,1.275,0,0,1,.116.558,1.392,1.392,0,0,1-.075.456,1.153,1.153,0,0,1-.211.367,1.184,1.184,0,0,1-.327.279,1.721,1.721,0,0,1-.429.177v.014a1.87,1.87,0,0,1,.225.157c.061.061.122.116.177.177s.116.129.17.2.116.163.184.272ZM40.143,28.4a1.294,1.294,0,0,0-1.048.483,2.2,2.2,0,0,0-.007,2.525,1.259,1.259,0,0,0,1.028.476,1.313,1.313,0,0,0,1.062-.456,1.909,1.909,0,0,0,.388-1.273,2,2,0,0,0-.381-1.3A1.272,1.272,0,0,0,40.143,28.4ZM40.1,32.554a2.108,2.108,0,0,1-1.626-.66,2.4,2.4,0,0,1-.612-1.708,2.578,2.578,0,0,1,.619-1.8,2.189,2.189,0,0,1,1.688-.674,2.063,2.063,0,0,1,1.592.653,2.426,2.426,0,0,1,.606,1.708,2.57,2.57,0,0,1-.619,1.817A2.1,2.1,0,0,1,40.1,32.554Zm-4.587-4.1H34.168V32.48h-.776V28.451H32.045v-.66h3.471ZM29.391,32.48H26.757V27.791h2.525v.66H27.533v1.327h1.613v.66H27.533v1.388h1.851v.653Zm-8.275-4.063v1.524h.646a1.038,1.038,0,0,0,.333-.054.757.757,0,0,0,.265-.163.717.717,0,0,0,.17-.252.892.892,0,0,0,.061-.34.653.653,0,0,0-.211-.524.881.881,0,0,0-.612-.191Zm2.851,4.063h-.912l-.749-1.259a3.091,3.091,0,0,0-.2-.293,1.42,1.42,0,0,0-.2-.2.672.672,0,0,0-.218-.116,1.006,1.006,0,0,0-.265-.034h-.313V32.48h-.769V27.791h1.545a2.42,2.42,0,0,1,.606.075,1.4,1.4,0,0,1,.483.238,1.066,1.066,0,0,1,.32.395,1.275,1.275,0,0,1,.116.558,1.392,1.392,0,0,1-.075.456,1.153,1.153,0,0,1-.211.367,1.184,1.184,0,0,1-.327.279,1.721,1.721,0,0,1-.429.177v.014a1.871,1.871,0,0,1,.225.157c.061.061.122.116.177.177s.116.129.17.2.116.163.184.272Zm-9.262-4.063v1.524h.646a1.038,1.038,0,0,0,.333-.054.757.757,0,0,0,.265-.163.717.717,0,0,0,.17-.252.892.892,0,0,0,.061-.34.653.653,0,0,0-.211-.524.881.881,0,0,0-.612-.191ZM17.55,32.48h-.912l-.749-1.259a3.091,3.091,0,0,0-.2-.293,1.42,1.42,0,0,0-.2-.2.672.672,0,0,0-.218-.116,1.006,1.006,0,0,0-.265-.034H14.7V32.48h-.776V27.791h1.545a2.42,2.42,0,0,1,.606.075,1.4,1.4,0,0,1,.483.238,1.066,1.066,0,0,1,.32.395,1.275,1.275,0,0,1,.116.558,1.392,1.392,0,0,1-.075.456,1.153,1.153,0,0,1-.211.367,1.184,1.184,0,0,1-.327.279,1.721,1.721,0,0,1-.429.177v.014a1.871,1.871,0,0,1,.225.157c.061.061.122.116.177.177s.116.129.17.2.116.163.184.272ZM8.588,28.4a1.294,1.294,0,0,0-1.048.483A2.2,2.2,0,0,0,7.533,31.4a1.259,1.259,0,0,0,1.028.476,1.313,1.313,0,0,0,1.062-.456,1.909,1.909,0,0,0,.388-1.273,2,2,0,0,0-.381-1.3A1.272,1.272,0,0,0,8.588,28.4Zm-.034,4.158a2.108,2.108,0,0,1-1.626-.66,2.4,2.4,0,0,1-.612-1.708,2.547,2.547,0,0,1,.619-1.8,2.189,2.189,0,0,1,1.688-.674,2.063,2.063,0,0,1,1.592.653,2.426,2.426,0,0,1,.606,1.708,2.57,2.57,0,0,1-.619,1.817A2.115,2.115,0,0,1,8.554,32.554Zm-4.988-.272a2.833,2.833,0,0,1-1.32.272,2.152,2.152,0,0,1-1.633-.646A2.338,2.338,0,0,1,0,30.22,2.457,2.457,0,0,1,.694,28.4a2.364,2.364,0,0,1,1.749-.694,2.985,2.985,0,0,1,1.13.191v.776A1.982,1.982,0,0,0,2.525,28.4a1.625,1.625,0,0,0-1.232.49,1.752,1.752,0,0,0-.476,1.293,1.707,1.707,0,0,0,.442,1.232,1.537,1.537,0,0,0,1.164.463,2.066,2.066,0,0,0,1.15-.313v.721ZM148.146,2.456a37.588,37.588,0,0,1,6.54,14.719c.225,1.082.395,2.164.524,3.246l1.211-.381c-.129-1.034-.3-2.076-.51-3.11a38.691,38.691,0,0,0-7.159-15.74l-1.368.279-8.248,19.285H140.5l6.4-15.2C147.132,4.98,147.867,3.15,148.146,2.456Z" transform="translate(230 23.613)" fill="#484b4d" fill-rule="evenodd"/>
  </g>
</svg>
